:FULLY-SPECIFIED
:FORCE-ALL-JOINTS-BE-3DOF
:DEGREES
1020
root 0.247504 13.5561 -35.3857 372.299 -28.1861 342.296
lfemur -70.0423 36.0663 -4.12866
ltibia 82.3466 0 0
lfoot -12.6443 -8.38668 0
ltoes -6.1533 0 0
rfemur 10.3112 -8.69877 8.65135
rtibia 36.5148 0 0
rfoot -22.6087 -26.1279 0
rtoes -31.4526 0 0
lowerback 10.3174 -0.648967 5.64248
upperback -1.64721 0.363468 8.00205
thorax -7.61545 0.0890398 5.32546
lowerneck -6.26972 8.09871 3.76809
upperneck 8.25879 10.5737 -0.932698
head 4.10263 5.30098 -0.361289
lclavicle -1.3366e-14 -3.01961e-14 0
lhumerus 83.8916 -11.1335 27.1352
lradius 94.975 0 0
lwrist 9.51676 0 0
lhand -36.311 30.9948 0
lfingers 7.12502 0 0
lthumb -8.68547 59.2096 0
rclavicle 2.86263e-16 -3.20798e-14 0
rhumerus -77.5582 23.19 -95.1075
rradius 112.185 0 0
rwrist -63.1699 0 0
rhand -10.0627 -25.4972 0
rfingers 7.12502 0 0
rthumb 15.765 -54.5833 0
1021
root 0.246428 13.5528 -35.3769 372.275 -28.1762 342.313
lfemur -70.0698 36.0928 -4.15406
ltibia 82.4262 0 0
lfoot -12.7056 -8.39833 0
ltoes -6.17622 0 0
rfemur 10.3537 -8.6928 8.63378
rtibia 36.5028 0 0
rfoot -22.6038 -26.1429 0
rtoes -31.4462 0 0
lowerback 10.2874 -0.789171 5.47745
upperback -1.81465 0.173717 8.11367
thorax -7.7717 0.00554305 5.58204
lowerneck -5.30263 8.21476 3.61802
upperneck 8.01124 10.783 -0.998588
head 3.82443 5.4032 -0.397208
lclavicle -1.31828e-14 -3.05061e-14 0
lhumerus 83.8774 -10.7497 27.2765
lradius 94.786 0 0
lwrist 9.34823 0 0
lhand -36.3333 30.9384 0
lfingers 7.12502 0 0
lthumb -8.69228 59.2333 0
rclavicle 4.52775e-15 -3.12649e-14 0
rhumerus -77.5817 23.2193 -95.123
rradius 112.166 0 0
rwrist -63.1974 0 0
rhand -10.0593 -25.4894 0
rfingers 7.12502 0 0
rthumb 15.7625 -54.5598 0
1022
root 0.245708 13.5496 -35.3692 372.285 -28.1519 342.329
lfemur -70.0906 36.1128 -4.17317
ltibia 82.4953 0 0
lfoot -12.772 -8.41097 0
ltoes -6.19046 0 0
rfemur 10.3888 -8.68788 8.61928
rtibia 36.4894 0 0
rfoot -22.599 -26.1576 0
rtoes -31.444 0 0
lowerback 10.2589 -0.83997 5.40937
upperback -1.87143 0.101125 8.14679
thorax -7.81317 -0.0261421 5.67166
lowerneck -5.02538 8.26271 3.52909
upperneck 7.94613 10.8638 -0.995879
head 3.74332 5.44243 -0.392086
lclavicle -1.31198e-14 -3.06128e-14 0
lhumerus 83.8602 -10.2842 27.4479
lradius 94.6442 0 0
lwrist 9.19383 0 0
lhand -36.3411 30.9188 0
lfingers 7.12502 0 0
lthumb -8.70069 59.2626 0
rclavicle 9.2045e-15 -3.03664e-14 0
rhumerus -77.6039 23.2469 -95.1376
rradius 112.146 0 0
rwrist -63.2249 0 0
rhand -10.0554 -25.4806 0
rfingers 7.12502 0 0
rthumb 15.7604 -54.5403 0
1023
root 0.244334 13.5456 -35.3606 372.3 -28.1567 342.324
lfemur -70.1037 36.1253 -4.18522
ltibia 82.5521 0 0
lfoot -12.8425 -8.42436 0
ltoes -6.19536 0 0
rfemur 10.4153 -8.68416 8.60834
rtibia 36.475 0 0
rfoot -22.5943 -26.1719 0
rtoes -31.4422 0 0
lowerback 10.2051 -0.811759 5.42256
upperback -1.86025 0.132276 8.12126
thorax -7.77132 -0.0119926 5.62792
lowerneck -5.04604 8.24865 3.51057
upperneck 7.94516 10.844 -0.975884
head 3.7438 5.43277 -0.382848
lclavicle -1.31724e-14 -3.05869e-14 0
lhumerus 83.8404 -9.74973 27.6447
lradius 94.5551 0 0
lwrist 9.05613 0 0
lhand -36.3359 30.9236 0
lfingers 7.12502 0 0
lthumb -8.71053 59.2969 0
rclavicle 1.42585e-14 -2.93954e-14 0
rhumerus -77.6245 23.2727 -95.1513
rradius 112.124 0 0
rwrist -63.2522 0 0
rhand -10.0511 -25.4708 0
rfingers 7.12502 0 0
rthumb 15.7588 -54.5256 0
1024
root 0.24394 13.5419 -35.3533 372.29 -28.1712 342.361
lfemur -70.1082 36.1297 -4.18941
ltibia 82.5949 0 0
lfoot -12.9158 -8.4383 0
ltoes -6.1935 0 0
rfemur 10.4321 -8.68182 8.60143
rtibia 36.4598 0 0
rfoot -22.5899 -26.1854 0
rtoes -31.437 0 0
lowerback 10.1852 -0.849302 5.34252
upperback -1.88584 0.0728161 8.13821
thorax -7.7842 -0.0370324 5.70279
lowerneck -4.88081 8.30708 3.43768
upperneck 7.91975 10.9345 -0.983165
head 3.70061 5.47614 -0.376808
lclavicle -1.33256e-14 -3.05115e-14 0
lhumerus 83.8185 -9.15876 27.8623
lradius 94.5241 0 0
lwrist 8.93771 0 0
lhand -36.3211 30.9372 0
lfingers 7.12502 0 0
lthumb -8.72164 59.3355 0
rclavicle 1.96317e-14 -2.83631e-14 0
rhumerus -77.6433 23.2961 -95.1637
rradius 112.102 0 0
rwrist -63.2789 0 0
rhand -10.0465 -25.4602 0
rfingers 7.12502 0 0
rthumb 15.7578 -54.5163 0
1025
root 0.24242 13.5374 -35.3458 372.303 -28.1907 342.344
lfemur -70.108 36.1302 -4.18724
ltibia 82.6218 0 0
lfoot -12.9908 -8.45256 0
ltoes -6.18811 0 0
rfemur 10.4379 -8.681 8.59902
rtibia 36.4441 0 0
rfoot -22.5857 -26.1981 0
rtoes -31.4288 0 0
lowerback 10.1627 -0.81763 5.34497
upperback -1.87423 0.111007 8.11861
thorax -7.76054 -0.018818 5.67172
lowerneck -4.91514 8.29554 3.44113
upperneck 7.9404 10.9179 -0.983958
head 3.71442 5.46774 -0.376345
lclavicle -1.3572e-14 -3.03902e-14 0
lhumerus 83.795 -8.52387 28.0961
lradius 94.4938 0 0
lwrist 8.84113 0 0
lhand -36.2976 30.9587 0
lfingers 7.12502 0 0
lthumb -8.73386 59.3781 0
rclavicle 2.5266e-14 -2.72806e-14 0
rhumerus -77.66 23.3169 -95.1747
rradius 112.08 0 0
rwrist -63.3049 0 0
rhand -10.0416 -25.4489 0
rfingers 7.12502 0 0
rthumb 15.7575 -54.513 0
1026
root 0.241835 13.5333 -35.339 372.306 -28.1668 342.36
lfemur -70.1073 36.1316 -4.18093
ltibia 82.6312 0 0
lfoot -13.0664 -8.46693 0
ltoes -6.17947 0 0
rfemur 10.4391 -8.68285 8.59626
rtibia 36.428 0 0
rfoot -22.5819 -26.2097 0
rtoes -31.4178 0 0
lowerback 10.1503 -0.830868 5.30728
upperback -1.88432 0.0884574 8.12446
thorax -7.76301 -0.0279407 5.70346
lowerneck -4.86763 8.32399 3.40872
upperneck 7.93106 10.9617 -0.999513
head 3.70187 5.48813 -0.376144
lclavicle -1.39046e-14 -3.02264e-14 0
lhumerus 83.7703 -7.85759 28.3414
lradius 94.4072 0 0
lwrist 8.76896 0 0
lhand -36.2667 30.9871 0
lfingers 7.12502 0 0
lthumb -8.74704 59.424 0
rclavicle 3.11035e-14 -2.61591e-14 0
rhumerus -77.6742 23.3347 -95.1841
rradius 112.056 0 0
rwrist -63.33 0 0
rhand -10.0364 -25.437 0
rfingers 7.12502 0 0
rthumb 15.7594 -54.5137 0
